<?xml version="1.0" encoding="utf-8"?>
<!-- Generator: Adobe Illustrator 27.5.0, SVG Export Plug-In . SVG Version: 6.00 Build 0)  -->
<svg version="1.1" id="Capa_2" xmlns="http://www.w3.org/2000/svg" xmlns:xlink="http://www.w3.org/1999/xlink" x="0px" y="0px"
	 viewBox="0 0 2122 2122" style="enable-background:new 0 0 2122 2122;" xml:space="preserve">
<path style="fill:#19223D;" d="M1855.494,938.614c-66.166-111.21-175.914-204.887-313.241-270.897
	c-137.359-65.995-302.455-104.356-480.027-104.363c-157.044,0.005-304.247,30.106-431.213,82.69L183.065,284.326l189.408,525.956
	c-52.568,50.159-94.892,106.375-124.427,167.149c-30.881,63.526-47.76,132.048-47.752,203.331
	c-0.014,86.043,24.571,168.035,68.661,242.146c66.166,111.21,175.915,204.886,313.242,270.896
	c137.359,65.996,302.455,104.355,480.028,104.364c236.759-0.032,451.354-68.155,607.568-179.221
	c78.092-55.55,141.608-121.901,185.701-196.039c44.089-74.112,68.675-156.104,68.661-242.146
	C1924.169,1094.718,1899.583,1012.726,1855.494,938.614z"/>
<path style="fill:#C63E8F;" d="M1448.531,738.711c-20.228-37.747-44.649-71.607-72.272-102.003
	c-96.858-27.952-202.871-43.436-314.034-43.421c-156.579-0.005-302.969,30.648-427.88,83.734l-8.268,3.513L247.461,374.798
	l159.848,443.866l-7.26,6.732c-53.552,49.651-96.025,105.327-125.078,165.118c-29.052,59.807-44.734,123.698-44.742,190.248
	c0.003,13.631,0.714,27.142,2.01,40.54c36.804,53.721,84.479,98.507,139.785,137.017
	c157.539,109.698,360.376,161.287,551.263,150.236c19.909-1.152,39.693-3.123,59.311-5.821c17.997-11.984,42.461-19.39,69.471-19.39
	c6.769,0,13.375,0.476,19.767,1.359c130.201-35.12,247.409-107.344,330.99-218.64
	C1518.812,1111.614,1540.34,910.046,1448.531,738.711z"/>
<path style="fill:#BE2E88;" d="M1894.221,1180.761c-0.015-80.317-22.828-156.809-64.456-226.848
	c-41.625-70.011-102.143-133.476-177.322-186.946c-77.988-55.497-171.764-100.126-276.184-130.26
	c27.623,30.396,52.044,64.256,72.272,102.003c91.81,171.335,70.281,372.903-45.706,527.349
	c-83.581,111.296-200.789,183.521-330.99,218.64c1.771,0.244,3.485,0.588,5.22,0.896c8-1.42,16.342-2.255,24.987-2.255
	c55.244,0,100.028,30.845,100.028,68.894c0,38.048-44.784,68.893-100.028,68.893c-8.645,0-16.987-0.835-24.987-2.255
	c-8.001,1.42-16.344,2.255-24.988,2.255c-55.245,0-100.028-30.845-100.028-68.893c0-19.446,11.744-36.977,30.557-49.504
	c-19.618,2.698-39.402,4.669-59.311,5.821c-190.887,11.051-393.724-40.537-551.263-150.236
	c-55.306-38.51-102.981-83.296-139.785-137.017c6.342,65.544,27.883,128.155,62.447,186.307
	c41.625,70.012,102.143,133.476,177.322,186.946c150.327,106.974,359.213,173.712,590.219,173.68
	c173.252,0.008,334.068-37.492,467.062-101.411c133.026-63.906,238.067-154.201,300.478-259.215
	C1871.393,1337.57,1894.206,1261.077,1894.221,1180.761z"/>
<path style="fill:#DA74AB;" d="M884.383,1237.771c128.629-74.264,218.32-180.882,249.445-282.32
	c-5.128-5.104-11.041-9.953-17.731-14.363c-9.319-6.158-20.018-11.415-31.444-15.329c-9.176-3.156-18.815-5.308-28.519-6.614
	c-30.251,7.064-59.719,26.367-78.207,67.376c-14.779,32.782-51.974,48.386-85.317,36.922c-17.566,7.422-38.025,7.857-56.781-0.599
	c-35.736-16.112-51.644-58.142-35.532-93.878c17.339-38.588,42.043-70.851,71.313-95.101c29.242-24.32,62.69-40.539,96.765-49.406
	c22.741-5.934,45.805-8.686,68.569-8.687c11.867,0.012,23.64,0.831,35.288,2.276c15.268-0.776,30.568-0.262,45.706,1.413
	c-78.873-125.029-303.481-132.344-506.797-14.961c-206.476,119.209-312.69,321.791-237.237,452.481
	C449.359,1347.674,677.908,1356.98,884.383,1237.771z"/>
<path style="fill:#A81776;" d="M1072.233,778.051c29.89,3.709,58.877,11.967,85.901,24.443
	c37.484,17.386,71.53,42.942,97.481,77.013c17.245,22.669,30.712,49.255,38.094,78.629c4.227,16.762,6.458,34.375,6.453,52.377
	c0.01,24.188-4.027,49.009-12.03,73.579c-5.124,15.75-11.727,30.319-19.12,43.745c-7.4,13.434-15.585,25.748-24.057,37.206
	c-16.973,22.896-35.04,42.501-51.694,60.573c-11.114,12.027-21.625,23.341-30.919,34.111c-12.418,14.35-22.568,27.724-29.677,39.955
	c-1.995,3.418-3.753,6.74-5.305,9.987l0.001,71.077c0,29.344-17.812,54.524-43.212,65.332c6.978,2.373,14.43,3.718,22.21,3.718
	c38.135,0,69.051-30.915,69.051-69.051v-71.517c12.703-26.808,37.276-53.396,63.129-81.365
	c36.721-39.728,78.344-84.754,97.739-144.368c39.136-120.282-20.818-238.051-145.799-286.391
	c-23.098-8.934-47.592-14.881-72.538-17.641C1102.8,777.789,1087.5,777.276,1072.233,778.051z"/>
<path style="fill:#A81776;" d="M1152.096,1552.237c0,32.095-31.911,58.984-75.04,66.638c8,1.42,16.342,2.255,24.987,2.255
	c55.244,0,100.028-30.845,100.028-68.893c0-38.049-44.784-68.894-100.028-68.894c-8.645,0-16.987,0.835-24.987,2.255
	C1120.185,1493.252,1152.096,1520.142,1152.096,1552.237z"/>
<path style="fill:#19223D;" d="M1127.359,1380.747l-0.001-71.077c1.552-3.247,3.31-6.569,5.305-9.987
	c7.109-12.231,17.26-25.605,29.677-39.955c9.294-10.771,19.805-22.084,30.919-34.111c16.654-18.072,34.722-37.677,51.694-60.573
	c8.472-11.457,16.657-23.772,24.057-37.206c7.393-13.426,13.996-27.995,19.12-43.745c8.003-24.57,12.04-49.391,12.03-73.579
	c0.005-18.002-2.226-35.616-6.453-52.377c-7.382-29.375-20.849-55.96-38.094-78.629c-25.951-34.071-59.997-59.627-97.481-77.013
	c-27.023-12.476-56.01-20.734-85.901-24.443c-11.648-1.446-23.421-2.265-35.288-2.276c-22.764,0.001-45.828,2.753-68.569,8.687
	c-34.075,8.867-67.523,25.086-96.765,49.406c-29.27,24.25-53.974,56.513-71.313,95.101c-16.112,35.735-0.204,77.766,35.532,93.878
	c18.755,8.455,39.214,8.02,56.781,0.599c15.904-6.719,29.441-19.15,37.097-36.13l-0.001-0.001
	c6.08-13.461,13.106-24.046,20.71-32.68c11.43-12.898,24.247-21.679,38.768-27.77c14.481-6.036,30.783-9.138,47.76-9.136
	c6.358-0.005,12.785,0.556,19.189,1.418c9.704,1.306,19.343,3.458,28.519,6.614c11.426,3.913,22.125,9.17,31.444,15.329
	c6.69,4.41,12.603,9.259,17.731,14.363c5.629,5.6,10.306,11.509,13.901,17.517c3.458,5.765,6.021,11.636,7.772,17.776
	c1.743,6.15,2.7,12.586,2.707,19.769c-0.01,8.567-1.372,18.267-5.067,29.664c-2.027,6.227-4.864,12.664-8.656,19.511
	c-6.6,11.966-16.256,25.125-28.313,39.294c-9.021,10.633-19.327,21.819-30.312,33.696c-16.463,17.848-34.496,37.178-51.645,59.643
	c-8.563,11.243-16.894,23.302-24.524,36.448c-7.624,13.139-14.544,27.385-20.096,42.826c-2.854,7.934-4.188,15.589-4.188,24.02
	v85.13c0,39.199,31.777,70.976,70.977,70.976c9.854,0,19.236-2.015,27.765-5.644
	C1109.547,1435.271,1127.359,1410.092,1127.359,1380.747z"/>
<path style="fill:#19223D;" d="M982.597,1502.733c-18.813,12.526-30.557,30.058-30.557,49.504
	c0,38.048,44.784,68.893,100.028,68.893c8.644,0,16.986-0.835,24.988-2.255c43.129-7.654,75.04-34.543,75.04-66.638
	c0-32.095-31.911-58.984-75.04-66.639c-1.736-0.308-3.449-0.652-5.22-0.896c-6.392-0.883-12.998-1.359-19.767-1.359
	C1025.058,1483.343,1000.594,1490.749,982.597,1502.733z"/>
<path style="fill:#19223D;" d="M1326.706,542.344c88.899,15.504,176.208,42.69,256.871,83.394
	c77.441,39.079,148.514,90.707,208.945,152.979c34.518,35.569,65.544,74.497,92.644,115.992c5.474,8.381,34.651-2.838,31.698-7.359
	c-48.638-74.475-109.181-140.607-179.987-194.543c-70.904-54.011-151.07-95.451-235.282-124.393
	c-50.262-17.274-101.965-30.028-154.304-39.156c-7.09-1.236-16.47,1.302-22.414,5.204
	C1319.584,537.936,1320.72,541.3,1326.706,542.344z"/>
<path style="fill:#19223D;" d="M1274.208,520.518c-1.327,7.213,5.178,14.455,14.528,16.174c9.351,1.72,18.006-2.734,19.333-9.947
	c1.327-7.214-5.178-14.455-14.529-16.175C1284.191,508.852,1275.535,513.305,1274.208,520.518z"/>
<path style="fill:#19223D;" d="M782.222,1815.075c-88.993-15.534-176.373-42.749-257.113-83.519
	c-77.34-39.053-148.302-90.636-208.672-152.823c-34.536-35.575-65.56-74.522-92.675-116.024c-5.476-8.382-34.651,2.84-31.699,7.358
	c48.678,74.507,109.233,140.651,180.08,194.615c70.899,54.002,151.079,95.423,235.284,124.354
	c50.234,17.258,101.903,29.994,154.21,39.124c6.983,1.219,16.615-1.209,22.415-5.203
	C789.207,1819.408,788.326,1816.14,782.222,1815.075z"/>
<path style="fill:#19223D;" d="M820.192,1820.726c-9.351-1.72-18.006,2.734-19.332,9.947c-1.327,7.214,5.178,14.455,14.528,16.175
	c9.35,1.72,18.006-2.734,19.333-9.947C836.046,1829.687,829.542,1822.446,820.192,1820.726z"/>
<path style="fill:#A81776;" d="M989.185,926.864c-14.521,6.091-27.338,14.872-38.768,27.77c-7.605,8.635-14.63,19.219-20.71,32.68
	l0.001,0.001c-7.656,16.98-21.193,29.411-37.097,36.13c33.342,11.463,70.537-4.14,85.317-36.922
	c18.488-41.009,47.956-60.312,78.207-67.376c-6.404-0.862-12.832-1.424-19.189-1.418
	C1019.968,917.725,1003.666,920.828,989.185,926.864z"/>
</svg>
