<?xml version="1.0" encoding="utf-8"?>
<!-- Generator: Adobe Illustrator 27.5.0, SVG Export Plug-In . SVG Version: 6.00 Build 0)  -->
<svg version="1.1" xmlns="http://www.w3.org/2000/svg" xmlns:xlink="http://www.w3.org/1999/xlink" x="0px" y="0px"
	 viewBox="0 0 500 500" style="enable-background:new 0 0 500 500;" xml:space="preserve">
<g id="BACKGROUND">
	<rect style="fill:#FFFFFF;" width="500" height="500"/>
</g>
<g id="OBJECTS">
	<g>
		<g>
			
				<linearGradient id="SVGID_1_" gradientUnits="userSpaceOnUse" x1="60.0239" y1="317.8878" x2="147.2926" y2="434.2461" gradientTransform="matrix(0.9816 -0.1908 0.1908 0.9816 -63.5084 28.7389)">
				<stop  offset="0" style="stop-color:#8FD4FF"/>
				<stop  offset="1" style="stop-color:#C987E5"/>
			</linearGradient>
			<path style="fill:url(#SVGID_1_);" d="M66.443,347.661c0,0,13.595,46.185,36.617,50.819c22.528,4.534,45.925,6.99,45.925,6.99
				s-7.444-28.476-27.074-47.58C102.28,338.785,66.443,347.661,66.443,347.661z"/>
			<path style="fill:#9D63EA;" d="M144.592,402.99c-3.071-7.339-8.721-13.448-15.101-18.755c-0.612-1.823-1.974-3.311-2.871-5.018
				c-1.219-2.32-2.164-4.801-3.227-7.195c-1.51-3.399-3.377-7.133-7.109-8.395c-0.555-0.188-0.937,0.576-0.456,0.909
				c3.781,2.618,5.3,7.529,6.937,11.605c0.457,1.139,0.985,2.661,1.667,4.133c-3.661-2.713-7.4-5.217-10.909-7.577
				c-0.787-0.529-1.572-1.068-2.357-1.614c-2.562-4.635-5.479-9.204-8.128-13.826c-2.067-3.605-4.634-7.163-8.69-8.582
				c-0.793-0.278-1.181,0.893-0.426,1.217c4.982,2.142,7.426,8.125,9.73,12.667c0.755,1.49,1.55,3.294,2.505,4.99
				C96.735,360.84,87.066,354,75.65,351.735c-0.596-0.118-0.719,0.787-0.209,0.995c11.122,4.536,20.869,10.597,30.505,17.374
				c-2.95,0.162-5.896,0.6-8.86,0.583c-4.315-0.025-8.499-1.182-12.382-3c-0.735-0.343-1.282,0.82-0.626,1.248
				c6.595,4.284,16.375,5.315,23.908,2.604c1.415,1.01,2.83,2.034,4.247,3.071c5.233,3.828,10.142,7.684,14.805,11.769
				c-2.479,0.649-4.919,1.376-7.537,1.696c-3.757,0.46-7.502,0.464-11.24,1.129c-0.671,0.12-0.634,1.225,0.069,1.218
				c6.08-0.06,14.905,0.972,20.604-2.382c5.22,4.722,10.111,9.798,14.743,15.566C144.089,404.12,144.827,403.548,144.592,402.99z"/>
		</g>
		<g>
			
				<linearGradient id="SVGID_00000101086550762527985840000011183455915111241122_" gradientUnits="userSpaceOnUse" x1="153.2218" y1="424.5685" x2="138.2223" y2="303.9482" gradientTransform="matrix(0.9816 -0.1908 0.1908 0.9816 -63.5084 28.7389)">
				<stop  offset="0" style="stop-color:#8FD4FF"/>
				<stop  offset="1" style="stop-color:#C987E5"/>
			</linearGradient>
			<path style="fill:url(#SVGID_00000101086550762527985840000011183455915111241122_);" d="M132.096,296.024
				c0,0-24.592,37.249-9.189,67.361c15.403,30.112,29.545,43.917,29.545,43.917s15.219-26.514,20.146-53.575
				C177.525,326.666,132.096,296.024,132.096,296.024z"/>
			<path style="fill:#9D63EA;" d="M162.233,357.928c-2.242,3.28-4.373,6.435-7.121,9.336c-1.545,1.631-3.245,3.124-4.82,4.73
				c-0.6-4.672-1.269-9.333-1.94-13.968c1.079-1.09,2.002-2.479,2.974-3.581c1.605-1.82,3.21-3.633,4.695-5.553
				c2.192-2.833,4.518-6.726,3.284-10.408c-0.161-0.479-0.927-0.537-0.957,0.055c-0.203,4.163-2.683,7.4-5.283,10.463
				c-1.38,1.625-3.585,3.42-5.25,5.365c-0.833-5.715-1.773-11.392-2.88-17.047c2.436-1.917,3.353-5.859,4.324-8.704
				c1.129-3.314,1.859-6.679,2.275-10.149c0.059-0.492-0.716-0.66-0.853-0.179c-0.928,3.281-1.98,6.524-3.262,9.683
				c-0.833,2.052-2.314,4.261-3.059,6.487c-0.352-1.703-0.707-3.407-1.095-5.107c-1.815-7.977-5.628-15.291-7.237-23.269
				c-0.181-0.895-1.41-0.597-1.352,0.263c0.491,7.283,4.126,14.004,5.796,21.056c0.481,2.029,0.927,4.065,1.351,6.105
				c-1.747-1.601-3.559-3.139-5.141-4.943c-2.299-2.624-4.201-5.564-6.405-8.263c-0.382-0.468-1.136,0.052-0.868,0.582
				c2.737,5.437,7.342,12.646,13.01,15.672c1.08,5.564,1.988,11.161,2.723,16.78c0.064,0.491,0.129,0.981,0.193,1.472
				c-2.639-1.279-5.179-2.308-7.627-4.078c-2.981-2.156-5.982-4.824-8.023-7.922c-0.424-0.643-1.352-0.2-1.076,0.535
				c1.329,3.529,4.481,6.204,7.352,8.498c2.265,1.809,6.391,5.19,9.605,4.72c0.059,0.452,0.117,0.905,0.176,1.357
				c-0.043,0.245-0.01,0.462,0.085,0.646c0.698,5.305,1.376,10.612,2.005,15.926c-0.464-0.114-0.926-0.232-1.365-0.398
				c-1.989-0.756-3.741-2.145-5.416-3.419c-3.181-2.419-5.971-5.378-8.887-8.103c-0.53-0.497-1.329,0.17-0.858,0.753
				c2.824,3.5,5.792,6.779,9.248,9.674c1.609,1.348,4.856,3.783,7.576,3.989c0.06,0.523,0.129,1.046,0.188,1.57
				c0.814,7.342,0.381,15.138,2.912,22.142c0.198,0.546,1.105,0.345,1.11-0.215c0.074-8.674-0.678-17.366-1.734-26.021
				c5.214-3.951,11.552-9.811,12.539-16.212C163.221,357.735,162.501,357.538,162.233,357.928z"/>
		</g>
	</g>
	<g style="opacity:0.8;">
		<path style="fill:#FF79FF;" d="M330.655,121.021c0,1.628-1.321,2.188-2.95,1.246l-19.494-11.259
			c-1.628-0.94-2.949-3.023-2.949-4.653V86.862c0-1.628,1.32-2.187,2.949-1.246l19.494,11.259c1.629,0.94,2.95,3.023,2.95,4.653
			V121.021z"/>
		<path style="fill:#FFF4CC;" d="M384.494,180.018c0,1.629-1.319,2.186-2.948,1.246l-19.494-11.258
			c-1.628-0.941-2.949-3.024-2.949-4.653v-19.495c0-1.628,1.32-2.185,2.949-1.245l19.494,11.259c1.629,0.94,2.948,3.024,2.948,4.653
			V180.018z"/>
		<path style="fill:#97E5F7;" d="M413.446,196.739c0,1.63-1.321,2.188-2.95,1.247l-19.493-11.259
			c-1.628-0.942-2.949-3.025-2.949-4.654v-19.492c0-1.629,1.321-2.188,2.949-1.246l19.493,11.258c1.629,0.94,2.95,3.023,2.95,4.652
			V196.739z"/>
		<path style="fill:#97E5F7;" d="M355.545,192.787c0,1.629-1.321,2.187-2.95,1.246l-19.494-11.258
			c-1.628-0.942-2.949-3.024-2.949-4.654v-19.492c0-1.629,1.32-2.188,2.949-1.247l19.494,11.259c1.629,0.941,2.95,3.023,2.95,4.652
			V192.787z"/>
		<path style="fill:#FF79FF;" d="M384.494,209.508c0,1.628-1.319,2.186-2.948,1.246l-19.494-11.259
			c-1.628-0.941-2.949-3.023-2.949-4.654v-19.493c0-1.629,1.32-2.186,2.949-1.245l19.494,11.258c1.629,0.94,2.948,3.024,2.948,4.653
			V209.508z"/>
		<path style="fill:#FFF4CC;" d="M433.811,256.866c0,2.297-1.861,3.082-4.155,1.757l-27.45-15.857
			c-2.293-1.322-4.153-4.256-4.153-6.551v-27.449c0-2.293,1.86-3.08,4.153-1.755l27.45,15.855c2.294,1.324,4.155,4.258,4.155,6.552
			V256.866z"/>
		<path style="fill:#FF79FF;" d="M355.545,222.277c0,1.628-1.321,2.188-2.95,1.247l-19.494-11.259
			c-1.628-0.941-2.949-3.023-2.949-4.653v-19.493c0-1.628,1.32-2.187,2.949-1.246l19.494,11.258c1.629,0.942,2.95,3.024,2.95,4.653
			V222.277z"/>
		<path style="fill:#97E5F7;" d="M384.494,238.998c0,1.629-1.319,2.186-2.948,1.246l-19.494-11.258
			c-1.628-0.942-2.949-3.024-2.949-4.655v-19.494c0-1.628,1.32-2.186,2.949-1.245l19.494,11.259c1.629,0.94,2.948,3.023,2.948,4.652
			V238.998z"/>
		<path style="fill:#FFF4CC;" d="M401.946,287.219c0,1.63-1.321,2.188-2.95,1.246l-19.493-11.26
			c-1.628-0.939-2.949-3.023-2.949-4.652v-19.492c0-1.628,1.321-2.189,2.949-1.248l19.493,11.258c1.629,0.941,2.95,3.025,2.95,4.653
			V287.219z"/>
		<g>
			
				<linearGradient id="SVGID_00000017477971122950784050000001199630301974900877_" gradientUnits="userSpaceOnUse" x1="312.928" y1="142.636" x2="287.1811" y2="-45.394" gradientTransform="matrix(-1 0 0 1 653.7442 0)">
				<stop  offset="0" style="stop-color:#F0CFFF"/>
				<stop  offset="1" style="stop-color:#9165F7"/>
			</linearGradient>
			<polygon style="fill:url(#SVGID_00000017477971122950784050000001199630301974900877_);" points="315.142,48.662 380.731,86.531 
				380.597,133.59 373.679,129.596 373.637,144.226 360.946,122.244 315.008,95.722 			"/>
			<polygon style="fill:#FFFFFF;" points="322.286,70.594 322.281,72.504 373.479,102.064 373.485,100.154 			"/>
			<polygon style="fill:#FFFFFF;" points="322.233,89.251 322.228,91.157 373.427,120.716 373.432,118.811 			"/>
			<polygon style="fill:#FFFFFF;" points="322.286,70.594 373.485,100.154 373.479,102.064 322.281,72.504 			"/>
			<polygon style="fill:#FFFFFF;" points="373.432,118.811 373.427,120.716 322.228,91.157 322.233,89.251 			"/>
			<polygon style="fill:#FFFFFF;" points="322.26,79.923 373.458,109.482 373.453,111.388 322.255,81.829 			"/>
			<polygon style="fill:#FFFFFF;" points="322.313,61.265 373.512,90.825 373.506,92.735 322.307,63.176 			"/>
		</g>
	</g>
	<g>
		<g>
			
				<linearGradient id="SVGID_00000152261172354588036240000012814283968890129282_" gradientUnits="userSpaceOnUse" x1="359.3917" y1="233.8344" x2="368.0336" y2="351.9409" gradientTransform="matrix(0.9503 -0.3115 0.3115 0.9503 -76.3711 130.0681)">
				<stop  offset="0" style="stop-color:#8FD4FF"/>
				<stop  offset="1" style="stop-color:#C987E5"/>
			</linearGradient>
			<path style="fill:url(#SVGID_00000152261172354588036240000012814283968890129282_);" d="M347.893,262.888
				c0,0-16.76,35.81,2.794,60.323c19.555,24.514,35.593,23.501,35.593,23.501s-0.957-26.97,0.39-41.357
				C388.019,290.966,347.893,262.888,347.893,262.888z"/>
			<path style="fill:#9D63EA;" d="M380.173,320.33c-0.837,1.855-1.663,3.693-2.353,5.61c-0.412,1.141-1.033,2.31-1.498,3.496
				c-2.25-3.96-4.544-7.898-6.716-11.913c1.092-2.893,1.602-6.264,2.043-9.275c0.454-3.114,0.895-6.541-0.721-9.34
				c-0.186-0.322-0.631-0.053-0.554,0.269c0.74,3.089-0.571,7.112-1.218,10.122c-0.345,1.598-0.883,3.263-1.283,4.929
				c-1.023-1.986-2.02-3.987-2.942-6.035c-1.171-2.598-2.278-5.219-3.346-7.853c0.576-1.753,0.495-4.078,0.761-5.68
				c0.396-2.391,0.638-6.12,2.112-8.138c0.471-0.645-0.348-1.385-0.93-0.824c-1.845,1.78-2.362,4.891-2.878,7.276
				c-0.181,0.835-0.496,1.935-0.76,3.098c-2.731-7.022-5.25-14.123-7.929-21.177c-0.321-0.846-1.58-0.435-1.335,0.438
				c2.333,8.281,5.253,16.438,8.504,24.44c-0.593-0.114-1.206-0.186-1.761-0.386c-1.497-0.544-2.842-1.523-4.085-2.489
				c-2.524-1.962-5.183-4.613-6.496-7.574c-0.264-0.595-1.169-0.326-0.976,0.32c1.112,3.697,3.955,6.689,6.922,9.025
				c1.397,1.101,4.965,3.651,7.101,2.844c1.286,3.109,2.616,6.195,3.985,9.253c0.883,1.972,1.785,3.993,2.719,6.031
				c-5.858,0.419-10.888-4.695-16.118-6.591c-0.471-0.17-1.031,0.448-0.542,0.797c3.32,2.373,12.619,10.184,17.296,7.167
				c1.951,4.199,4.052,8.44,6.423,12.457c-1.102-0.085-2.314,0.028-3.221-0.1c-2.228-0.313-4.67-0.956-6.5-2.309
				c-0.715-0.529-1.627,0.449-0.932,1.052c1.833,1.586,4.113,2.379,6.452,2.882c1.363,0.293,3.75,0.845,5.29,0.243
				c2.115,3.398,4.43,6.61,7.05,9.439c0.477,0.516,1.105-0.215,0.849-0.738c-1.568-3.191-3.258-6.306-4.993-9.398
				c1.027-1.36,1.507-3.27,2.062-4.823c0.716-2.003,1.161-4.065,1.752-6.103C381.622,320.043,380.481,319.65,380.173,320.33z"/>
		</g>
		<g>
			
				<linearGradient id="SVGID_00000044886820598045692860000011844981120904895619_" gradientUnits="userSpaceOnUse" x1="407.1728" y1="355.4052" x2="367.9023" y2="262.3959" gradientTransform="matrix(1.0267 0.1309 -0.1369 1.0744 33.2783 -76.1841)">
				<stop  offset="0" style="stop-color:#8FD4FF"/>
				<stop  offset="1" style="stop-color:#C987E5"/>
			</linearGradient>
			<path style="fill:url(#SVGID_00000044886820598045692860000011844981120904895619_);" d="M391.067,268.601
				c0,0-24.252,25.822-17.686,45.702c6.613,20.025,14.606,33.456,14.606,33.456s14.856-15.033,15.918-40.286
				C404.966,282.22,391.067,268.601,391.067,268.601z"/>
			<path style="fill:#9D63EA;" d="M397.681,309.12c-2.668,3.332-5.569,6.459-8.295,9.73c-0.154-1.714-0.294-3.395-0.381-5.024
				c-0.195-3.645-0.24-7.285-0.213-10.925c1.144-1.544,1.93-3.462,2.944-5.063c1.469-2.318,2.966-4.492,3.99-7.068
				c0.211-0.532-0.508-0.987-0.837-0.504c-1.657,2.425-3.406,4.776-5.023,7.234c-0.335,0.508-0.686,1.036-1.02,1.58
				c0.137-6.465,0.461-12.926,0.661-19.395c0.013-0.426-0.592-0.672-0.743-0.205c-2.162,6.714-2.173,14.351-2.012,21.721
				c-0.466-0.953-1.017-1.869-1.549-2.816c-1.142-2.025-2.356-3.901-3.993-5.524c-0.396-0.392-1.006,0.275-0.671,0.704
				c1.446,1.857,2.598,4.04,3.729,6.117c0.802,1.472,1.455,2.917,2.544,4.103c0.049,2.059,0.094,4.086,0.089,6.054
				c-0.007,2.564,0.119,5.128,0.281,7.69c-1.539-0.807-2.803-1.648-4.153-2.999c-1.46-1.461-2.866-3.062-4.91-3.551
				c-0.597-0.143-0.753,0.777-0.27,1.031c2.136,1.119,6.34,7.903,9.445,7.198c0.116,1.7,0.237,3.398,0.343,5.094
				c0.373,5.989-0.103,11.938,0.056,17.911c0.013,0.496,0.759,0.565,0.912,0.117c2.148-6.322,1.665-13.607,1.044-20.561
				c3.461-3.502,6.907-7.537,9.256-11.911C399.318,309.085,398.18,308.497,397.681,309.12z"/>
		</g>
	</g>
	<g>
		
			<linearGradient id="SVGID_00000069384605364907559440000016263453309965148293_" gradientUnits="userSpaceOnUse" x1="192.9715" y1="306.0319" x2="144.9714" y2="20.0316">
			<stop  offset="0" style="stop-color:#F0CFFF"/>
			<stop  offset="1" style="stop-color:#9165F7"/>
		</linearGradient>
		<path style="fill:url(#SVGID_00000069384605364907559440000016263453309965148293_);" d="M221.487,250.565l-93.491,53.977
			c-1.366,0.789-2.481,0.154-2.485-1.424l-0.446-157.33c-0.004-1.57,1.103-3.488,2.469-4.277l93.491-53.977
			c1.366-0.789,2.48-0.153,2.485,1.417l0.446,157.331C223.96,247.858,222.853,249.776,221.487,250.565z"/>
		<g>
			<path style="fill:#FF79FF;" d="M144.09,281.082c4.571-2.639,8.263-9.032,8.248-14.278c-0.015-5.253-3.73-7.37-8.302-4.731
				c-4.565,2.636-8.263,9.032-8.248,14.286C135.804,281.604,139.525,283.718,144.09,281.082z"/>
		</g>
		<g>
			<path style="fill:#FF79FF;" d="M143.762,165.342c4.571-2.639,8.263-9.033,8.248-14.278c-0.015-5.253-3.73-7.37-8.302-4.731
				c-4.565,2.636-8.263,9.032-8.248,14.286C135.476,165.864,139.197,167.977,143.762,165.342z"/>
		</g>
		<g>
			<polygon style="fill:#FFFFFF;" points="158.763,268.327 158.757,266.192 213.569,234.546 213.575,236.681 			"/>
			<polygon style="fill:#FFFFFF;" points="158.675,237.198 213.487,205.552 213.493,207.687 158.681,239.333 			"/>
			<polygon style="fill:#FFFFFF;" points="158.733,257.872 213.546,226.227 213.552,228.361 158.739,260.007 			"/>
			<polygon style="fill:#FFFFFF;" points="158.651,228.878 213.463,197.232 213.469,199.368 158.657,231.014 			"/>
			<polygon style="fill:#FFFFFF;" points="158.486,170.649 213.298,139.003 213.304,141.145 158.492,172.792 			"/>
			<polygon style="fill:#FFFFFF;" points="158.509,178.969 213.322,147.323 213.328,149.465 158.516,181.111 			"/>
			<polygon style="fill:#FFFFFF;" points="158.533,187.288 213.346,155.642 213.352,157.777 158.539,189.423 			"/>
			<polygon style="fill:#FFFFFF;" points="158.581,203.927 213.393,172.281 213.399,174.417 158.586,206.063 			"/>
			<polygon style="fill:#FFFFFF;" points="158.604,212.24 213.417,180.594 213.422,182.736 158.61,214.382 			"/>
			<polygon style="fill:#FFFFFF;" points="158.627,220.56 213.44,188.914 213.446,191.056 158.633,222.702 			"/>
			<polygon style="fill:#FFFFFF;" points="158.429,150.452 213.241,118.806 213.247,120.941 158.435,152.587 			"/>
			<polygon style="fill:#FFFFFF;" points="158.405,142.133 213.217,110.487 213.224,112.629 158.411,144.275 			"/>
		</g>
		<g>
			<path style="fill:#4BDBF7;" d="M143.867,202.179c4.571-2.64,8.263-9.033,8.248-14.278c-0.015-5.253-3.73-7.37-8.301-4.73
				c-4.565,2.636-8.263,9.032-8.248,14.285C135.58,202.7,139.302,204.814,143.867,202.179z"/>
		</g>
		<g>
			<path style="fill:#FFD645;" d="M144.008,252.088c4.571-2.639,8.263-9.033,8.248-14.285c-0.015-5.246-3.73-7.363-8.301-4.723
				c-4.565,2.635-8.263,9.032-8.248,14.277C135.722,252.61,139.443,254.724,144.008,252.088z"/>
		</g>
	</g>
	<g style="opacity:0.6;">
		<path style="fill:#FFFF98;" d="M113.726,255.577c0-4.87-2.867-6.845-6.411-4.41c-3.54,2.434-6.404,8.36-6.404,13.227
			c0,4.87,2.864,6.848,6.404,4.413C110.859,266.372,113.726,260.448,113.726,255.577z"/>
		<path style="fill:#FFFF98;" d="M441.63,136.998c0,4.792-2.828,6.737-6.314,4.342c-3.483-2.398-6.307-8.236-6.307-13.031
			c0-4.792,2.823-6.737,6.307-4.342C438.802,126.368,441.63,132.203,441.63,136.998z"/>
		<path style="fill:#FFFF98;" d="M311.819,227.337c0,1.931-1.137,2.715-2.541,1.749c-1.404-0.965-2.541-3.314-2.541-5.246
			c0-1.932,1.137-2.714,2.541-1.748C310.682,223.057,311.819,225.407,311.819,227.337z"/>
		<path style="fill:#FFFF98;" d="M342.229,259.826c0,4.235-2.496,5.955-5.577,3.835c-3.082-2.118-5.577-7.273-5.577-11.511
			c0-4.235,2.495-5.957,5.577-3.84C339.733,250.431,342.229,255.587,342.229,259.826z"/>
		<path style="fill:#FFFF98;" d="M402.75,154.399c0,2.482-1.463,3.487-3.267,2.249c-1.803-1.242-3.263-4.26-3.263-6.741
			c0-2.481,1.459-3.485,3.263-2.246C401.287,148.899,402.75,151.921,402.75,154.399z"/>
		<path style="fill:#FFFF98;" d="M220.48,82.307c0-9.925-5.854-13.95-13.074-8.991c-7.214,4.972-13.061,17.055-13.061,26.979
			c0,9.927,5.848,13.959,13.061,8.998C214.626,104.322,220.48,92.238,220.48,82.307z"/>
	</g>
	<g style="enable-background:new    ;">
		<g>
			<polygon style="fill:#0093D2;" points="285.472,298.069 285.525,307.896 369.133,355.256 369.08,345.428 			"/>
		</g>
		<g>
			<polygon style="fill:#008ECB;" points="138.594,385.048 138.648,394.875 285.525,307.896 285.472,298.069 			"/>
		</g>
		<g>
			<polygon style="fill:#FDD905;" points="138.594,385.048 138.648,394.875 222.256,442.235 222.203,432.408 			"/>
		</g>
		<g>
			<polygon style="fill:#F2D005;" points="222.203,432.408 222.256,442.235 369.134,355.255 369.08,345.428 			"/>
		</g>
		<g>
			
				<linearGradient id="SVGID_00000040549202275891578160000010732452315020577186_" gradientUnits="userSpaceOnUse" x1="138.5938" y1="365.2385" x2="369.0796" y2="365.2385">
				<stop  offset="0" style="stop-color:#F0CFFF"/>
				<stop  offset="1" style="stop-color:#9165F7"/>
			</linearGradient>
			<polygon style="fill:url(#SVGID_00000040549202275891578160000010732452315020577186_);" points="222.203,432.408 
				369.08,345.428 285.472,298.069 138.594,385.048 			"/>
		</g>
		<path style="fill:#565C5D;" d="M121.084,391.455c-2.375-1.345-2.406-3.555-0.069-4.939l175.153-103.724
			c2.337-1.384,6.151-1.415,8.527-0.07l90.453,51.236c2.369,1.342,2.399,3.553,0.064,4.936L220.059,442.619
			c-2.338,1.384-6.152,1.417-8.522,0.074L121.084,391.455z M369.08,345.428l-83.607-47.359l-146.878,86.979l83.609,47.359
			L369.08,345.428 M167.746,410.31l10.208,5.783c0.933,0.529,2.436,0.517,3.349-0.025c0.919-0.543,0.907-1.413-0.027-1.941
			l-10.209-5.783c-0.933-0.529-2.434-0.515-3.353,0.027C166.8,408.911,166.812,409.781,167.746,410.31"/>
		<g>
			<path style="fill:#9B9B91;" d="M327.911,317.215c3.708,2.099,9.682,2.051,13.329-0.111c3.653-2.163,3.605-5.623-0.102-7.722
				c-3.712-2.103-9.68-2.05-13.334,0.113C324.158,311.654,324.198,315.112,327.911,317.215z"/>
		</g>
		<g>
			<path style="fill:#9B9B91;" d="M177.954,416.092c0.933,0.529,2.436,0.517,3.349-0.025c0.919-0.543,0.907-1.413-0.027-1.941
				l-10.209-5.783c-0.933-0.529-2.434-0.515-3.353,0.027c-0.914,0.542-0.902,1.411,0.032,1.94L177.954,416.092z"/>
		</g>
		<path style="fill:#494B4E;" d="M219.667,452.685c-0.158,0.077-0.321,0.149-0.49,0.215c-0.001,0.001-0.003,0.001-0.004,0.001
			l-0.001,0.001c-0.176,0.069-0.356,0.131-0.54,0.189c-0.133,0.042-0.272,0.075-0.411,0.111c-0.048,0.011-0.093,0.026-0.142,0.037
			c-0.031,0.006-0.061,0.018-0.092,0.025c-0.273,0.062-0.554,0.113-0.838,0.151c-0.026,0.004-0.053,0.004-0.081,0.007
			c-0.087,0.011-0.174,0.014-0.263,0.023c-0.262,0.027-0.526,0.045-0.793,0.051c-0.122,0.002-0.24,0-0.363-0.001
			c-0.239-0.002-0.478-0.014-0.715-0.033c-0.121-0.01-0.24-0.019-0.361-0.033c-0.26-0.031-0.517-0.074-0.768-0.125
			c-0.087-0.017-0.175-0.029-0.258-0.048c-0.021-0.005-0.043-0.007-0.063-0.012c-0.266-0.064-0.528-0.14-0.78-0.227
			c-0.034-0.013-0.066-0.027-0.102-0.04c-0.05-0.018-0.097-0.039-0.146-0.058c-0.112-0.043-0.226-0.083-0.332-0.131
			c-0.169-0.075-0.333-0.156-0.49-0.244c-0.015-0.008-0.029-0.016-0.043-0.024l-90.454-51.236c-0.135-0.077-0.262-0.157-0.382-0.238
			c-0.006-0.004-0.012-0.008-0.019-0.014c-0.066-0.046-0.123-0.093-0.186-0.142c-0.056-0.041-0.116-0.083-0.168-0.126
			c-0.005-0.005-0.009-0.009-0.014-0.014c-0.086-0.073-0.161-0.147-0.235-0.223c-0.027-0.026-0.056-0.05-0.08-0.077
			c-0.001-0.001-0.002-0.002-0.003-0.005c-0.104-0.11-0.194-0.226-0.275-0.341c-0.005-0.006-0.011-0.013-0.016-0.019
			c-0.012-0.017-0.018-0.036-0.029-0.053c-0.076-0.116-0.14-0.235-0.194-0.355c-0.01-0.021-0.026-0.041-0.034-0.061
			c-0.008-0.02-0.011-0.038-0.019-0.057c-0.031-0.085-0.056-0.168-0.079-0.253c-0.009-0.039-0.023-0.08-0.03-0.122
			c-0.023-0.122-0.039-0.248-0.04-0.372c-0.017-3.276-0.035-6.552-0.053-9.828c0.003,0.125,0.017,0.25,0.04,0.373
			c0.007,0.041,0.021,0.081,0.03,0.12c0.021,0.084,0.047,0.168,0.078,0.252c0.017,0.04,0.035,0.082,0.052,0.123
			c0.055,0.118,0.118,0.235,0.193,0.349c0.016,0.026,0.03,0.052,0.047,0.076c0.08,0.117,0.17,0.23,0.273,0.34
			c0.03,0.032,0.064,0.061,0.097,0.093c0.072,0.072,0.143,0.144,0.225,0.212c0.058,0.049,0.123,0.096,0.187,0.144
			c0.06,0.045,0.115,0.092,0.179,0.136c0.126,0.087,0.259,0.171,0.403,0.253l90.454,51.237c0.269,0.152,0.56,0.281,0.861,0.398
			c0.049,0.019,0.097,0.04,0.149,0.059c0.302,0.109,0.619,0.203,0.945,0.278c0.083,0.019,0.171,0.031,0.256,0.048
			c0.254,0.052,0.511,0.095,0.771,0.126c0.12,0.014,0.24,0.023,0.36,0.032c0.238,0.02,0.478,0.031,0.717,0.034
			c0.121,0.002,0.241,0.003,0.361,0c0.267-0.006,0.533-0.025,0.795-0.05c0.087-0.009,0.175-0.012,0.261-0.023
			c0.344-0.043,0.682-0.105,1.012-0.183c0.046-0.011,0.091-0.025,0.138-0.038c0.329-0.083,0.648-0.18,0.951-0.298
			c0.001-0.001,0.002,0,0.003-0.001c0.335-0.131,0.648-0.283,0.941-0.456l175.152-103.723c0.265-0.157,0.492-0.329,0.696-0.504
			c0.03-0.025,0.062-0.049,0.089-0.074c0.197-0.179,0.361-0.364,0.495-0.554c0.019-0.025,0.031-0.049,0.048-0.074
			c0.126-0.19,0.226-0.384,0.294-0.583c0.003-0.016,0.007-0.032,0.011-0.049c0.065-0.209,0.101-0.418,0.1-0.628
			c0.017,3.275,0.036,6.551,0.053,9.827c0.003,0.209-0.037,0.42-0.099,0.628c-0.005,0.018-0.008,0.033-0.015,0.051
			c-0.065,0.198-0.166,0.391-0.292,0.582c-0.017,0.025-0.028,0.05-0.047,0.074c-0.016,0.021-0.025,0.044-0.042,0.066
			c-0.113,0.15-0.246,0.299-0.397,0.443v-0.016l0,0v0.016c-0.018,0.015-0.039,0.03-0.056,0.046c-0.029,0.024-0.061,0.048-0.09,0.074
			c-0.082,0.072-0.164,0.145-0.257,0.215c-0.131,0.097-0.275,0.191-0.428,0.283c-0.003,0.001-0.008,0.004-0.011,0.005
			L220.111,452.446C219.968,452.532,219.821,452.611,219.667,452.685z"/>
	</g>
	<g>
		<g>
			<g>
				<path style="fill:#FFDE8D;" d="M115.204,129.116c0.205-0.172,0.407-0.349,0.609-0.528
					C115.611,128.767,115.409,128.943,115.204,129.116z"/>
			</g>
			<g>
				<path style="fill:#FFDE8D;" d="M114.248,129.885c-0.1,0.077-0.2,0.154-0.302,0.228
					C114.047,130.039,114.147,129.962,114.248,129.885z"/>
			</g>
			<g>
				<path style="fill:#FFDE8D;" d="M109.512,132.674c-2.049,0.843-3.969,1.148-5.682,0.966
					C105.54,133.825,107.462,133.518,109.512,132.674z"/>
			</g>
			<g>
				<path style="fill:#A48459;" d="M111.646,102.079c3.018-1.742,5.479,0.267,5.491,4.502c0.008,2.826-1.09,5.939-2.72,8.206
					c3.588-0.491,6.238,2.606,6.467,8.031c-1.996,2.854-4.361,5.38-6.938,7.295c-0.106,0.08-0.206,0.152-0.306,0.224
					c-0.216,0.155-0.41,0.29-0.604,0.421c-0.151,0.102-0.244,0.163-0.336,0.223c-0.122,0.078-0.21,0.134-0.297,0.189
					c-0.14,0.087-0.231,0.144-0.324,0.199c-0.158,0.095-0.253,0.151-0.348,0.206c-0.095,0.055-0.19,0.109-0.286,0.161
					c-0.155,0.086-0.248,0.136-0.339,0.185c-0.135,0.072-0.222,0.117-0.31,0.161c-0.127,0.065-0.22,0.111-0.313,0.156
					c-0.253,0.122-0.446,0.21-0.639,0.295c-0.123,0.053-0.223,0.096-0.322,0.137c-2.058,0.847-3.978,1.152-5.69,0.97
					c-0.023-0.002-0.046-0.004-0.069-0.008c-0.047-0.005-0.094-0.011-0.14-0.017c-0.071-0.009-0.141-0.02-0.211-0.031
					c-0.299-0.047-0.584-0.107-0.862-0.18c0.209-5.679,2.831-11.819,6.41-15.465c-1.638-0.38-2.749-2.216-2.757-5.043
					C106.188,108.66,108.62,103.827,111.646,102.079z"/>
			</g>
			<g>
				<path style="fill:#00D113;" d="M111.618,92.009c0.66-0.38,1.19-0.078,1.192,0.679c0.002,0.758-0.525,1.671-1.185,2.051
					c-0.66,0.381-1.199,0.084-1.202-0.674C110.422,93.308,110.958,92.389,111.618,92.009z"/>
			</g>
			<g>
				<path style="fill:#FFD645;" d="M127.109,104.937c0.023,8.151-4.742,17.777-11.255,23.614c1.839-1.649,3.537-3.6,5.029-5.732
					c-0.229-5.424-2.879-8.521-6.467-8.031c1.63-2.267,2.728-5.38,2.72-8.206c-0.012-4.235-2.473-6.245-5.491-4.502
					c-3.026,1.748-5.458,6.581-5.445,10.816c0.008,2.827,1.119,4.664,2.757,5.043c-3.579,3.646-6.201,9.786-6.409,15.461
					c-3.806-1.038-6.281-4.801-6.298-10.647c-0.028-9.793,6.857-21.717,15.379-26.638
					C120.152,91.195,127.082,95.144,127.109,104.937z"/>
			</g>
		</g>
		<g>
			<g style="enable-background:new    ;">
				<g>
					<path style="fill:#1DDEDB;" d="M248.506,117.648c-2.05,0.845-3.973,1.151-5.682,0.967
						C244.536,118.797,246.456,118.493,248.506,117.648z"/>
				</g>
				<g>
					<path style="fill:#2E84AE;" d="M250.64,87.054c3.018-1.742,5.478,0.268,5.49,4.502c0.008,2.837-1.09,5.939-2.72,8.206
						c3.587-0.48,6.238,2.619,6.466,8.032c-1.996,2.854-4.361,5.38-6.937,7.296c-0.107,0.078-0.206,0.15-0.306,0.223
						c-0.216,0.156-0.41,0.29-0.605,0.422c-0.151,0.101-0.243,0.162-0.336,0.221c-0.121,0.08-0.21,0.135-0.297,0.189
						c-0.14,0.088-0.231,0.145-0.324,0.2c-0.158,0.095-0.253,0.151-0.348,0.206c-0.095,0.055-0.19,0.109-0.285,0.161
						c-0.156,0.086-0.248,0.136-0.339,0.185c-0.136,0.072-0.222,0.118-0.311,0.162c-0.127,0.065-0.22,0.111-0.313,0.156
						c-0.252,0.121-0.446,0.21-0.639,0.294c-0.124,0.054-0.223,0.097-0.323,0.138c-2.058,0.848-3.978,1.152-5.69,0.97
						c-0.024-0.002-0.046-0.004-0.069-0.007c-0.047-0.006-0.094-0.011-0.14-0.019c-0.071-0.008-0.142-0.02-0.211-0.03
						c-0.299-0.047-0.584-0.105-0.863-0.18c0.208-5.669,2.831-11.807,6.41-15.465c-1.638-0.38-2.749-2.207-2.757-5.044
						C245.182,93.635,247.613,88.801,250.64,87.054z"/>
				</g>
				<g>
					<path style="fill:#4BDBF7;" d="M266.103,89.912c0.023,8.148-4.739,17.771-11.248,23.606c1.836-1.647,3.532-3.595,5.021-5.725
						c-0.228-5.413-2.879-8.512-6.466-8.032c1.63-2.266,2.727-5.368,2.72-8.206c-0.012-4.235-2.473-6.245-5.49-4.502
						c-3.027,1.747-5.458,6.582-5.446,10.816c0.008,2.837,1.119,4.664,2.757,5.044c-3.578,3.658-6.201,9.796-6.409,15.461
						c-3.805-1.038-6.281-4.801-6.298-10.646c-0.027-9.794,6.857-21.719,15.379-26.639C259.146,76.17,266.075,80.119,266.103,89.912
						z"/>
				</g>
			</g>
			<g>
				<path style="fill:#1DDEDB;" d="M254.203,114.086c0.2-0.167,0.398-0.341,0.596-0.517
					C254.601,113.746,254.402,113.919,254.203,114.086z"/>
			</g>
			<g>
				<path style="fill:#1DDEDB;" d="M253.66,114.534c0.088-0.071,0.175-0.142,0.263-0.213
					C253.835,114.392,253.748,114.463,253.66,114.534z"/>
			</g>
			<g>
				<path style="fill:#1DDEDB;" d="M253.559,114.613c0.034-0.027,0.068-0.052,0.101-0.08
					C253.626,114.561,253.592,114.586,253.559,114.613z"/>
			</g>
			<g>
				<path style="fill:#1DDEDB;" d="M253.242,114.86c-0.1,0.077-0.201,0.153-0.302,0.229
					C253.041,115.014,253.142,114.937,253.242,114.86z"/>
			</g>
			<g>
				<path style="fill:#00D113;" d="M250.612,76.984c0.66-0.381,1.19-0.078,1.192,0.679c0.002,0.758-0.525,1.682-1.184,2.063
					c-0.66,0.381-1.199,0.073-1.202-0.685C249.416,78.283,249.952,77.364,250.612,76.984z"/>
			</g>
		</g>
		<g>
			<g>
				<path style="fill:#FF83C7;" d="M92.331,212.143c0.202-0.169,0.401-0.342,0.599-0.52
					C92.732,211.801,92.532,211.974,92.331,212.143z"/>
			</g>
			<g>
				<path style="fill:#00D113;" d="M88.74,175.04c0.659-0.38,1.19-0.068,1.192,0.679c0.002,0.758-0.525,1.681-1.184,2.062
					c-0.66,0.38-1.199,0.074-1.202-0.685C87.544,176.35,88.08,175.421,88.74,175.04z"/>
			</g>
			<g style="enable-background:new    ;">
				<g>
					<path style="fill:#FF83C7;" d="M86.634,215.705c-2.051,0.845-3.973,1.152-5.682,0.967
						C82.664,216.854,84.584,216.55,86.634,215.705z"/>
				</g>
				<g>
					<path style="fill:#CA61A1;" d="M88.768,185.111c3.017-1.742,5.478,0.277,5.49,4.503c0.008,2.837-1.09,5.938-2.72,8.204
						c3.588-0.48,6.238,2.619,6.467,8.032c-1.996,2.854-4.361,5.38-6.938,7.296c-0.106,0.078-0.205,0.15-0.306,0.223
						c-0.216,0.156-0.41,0.29-0.604,0.422c-0.151,0.101-0.243,0.162-0.337,0.222c-0.121,0.08-0.209,0.135-0.297,0.189
						c-0.14,0.088-0.231,0.145-0.324,0.2c-0.158,0.095-0.253,0.151-0.348,0.206c-0.095,0.056-0.19,0.109-0.285,0.161
						c-0.156,0.086-0.248,0.136-0.339,0.185c-0.135,0.072-0.222,0.118-0.31,0.162c-0.127,0.065-0.22,0.111-0.313,0.156
						c-0.253,0.121-0.446,0.21-0.639,0.294c-0.124,0.054-0.223,0.097-0.322,0.138c-2.058,0.848-3.978,1.152-5.69,0.97
						c-0.023-0.003-0.046-0.004-0.069-0.007c-0.047-0.006-0.094-0.011-0.14-0.018c-0.071-0.008-0.141-0.02-0.21-0.03
						c-0.299-0.047-0.585-0.105-0.863-0.18c0.208-5.668,2.831-11.807,6.41-15.465c-1.638-0.38-2.749-2.207-2.757-5.044
						C83.31,191.703,85.741,186.859,88.768,185.111z"/>
				</g>
				<g>
					<path style="fill:#FF79FF;" d="M104.231,187.97c0.023,8.148-4.741,17.773-11.251,23.608c1.836-1.647,3.534-3.597,5.024-5.728
						c-0.229-5.413-2.879-8.512-6.467-8.032c1.63-2.266,2.728-5.367,2.72-8.204c-0.012-4.226-2.473-6.245-5.49-4.503
						c-3.027,1.748-5.458,6.592-5.446,10.816c0.008,2.837,1.119,4.663,2.757,5.044c-3.578,3.658-6.201,9.797-6.409,15.461
						c-3.805-1.038-6.281-4.801-6.298-10.645c-0.027-9.794,6.858-21.719,15.379-26.639
						C97.273,174.227,104.203,178.176,104.231,187.97z"/>
				</g>
			</g>
		</g>
	</g>
	<g>
		<g>
			
				<linearGradient id="SVGID_00000074424102361069716780000011214946106142749824_" gradientUnits="userSpaceOnUse" x1="-618.3367" y1="311.1215" x2="-618.7357" y2="394.0981" gradientTransform="matrix(-1 0 0 1 -338.3544 0)">
				<stop  offset="0" style="stop-color:#F0CFFF"/>
				<stop  offset="1" style="stop-color:#865EE5;stop-opacity:0"/>
			</linearGradient>
			<polygon style="fill:url(#SVGID_00000074424102361069716780000011214946106142749824_);" points="306.078,341.992 
				306.078,369.51 254.72,399.893 254.331,372.605 			"/>
			<polygon style="opacity:0.5;fill:#FFE5FF;" points="258.62,314.502 306.078,341.992 254.331,372.605 206.877,345.109 			"/>
			
				<linearGradient id="SVGID_00000012454226067162147270000012971126318065493688_" gradientUnits="userSpaceOnUse" x1="-568.7963" y1="312.1055" x2="-569.1919" y2="394.3838" gradientTransform="matrix(-1 0 0 1 -338.3544 0)">
				<stop  offset="0" style="stop-color:#F0CFFF"/>
				<stop  offset="1" style="stop-color:#865EE5;stop-opacity:0"/>
			</linearGradient>
			<polygon style="fill:url(#SVGID_00000012454226067162147270000012971126318065493688_);" points="206.877,372.624 
				206.877,345.109 254.331,372.605 254.72,399.893 			"/>
		</g>
		<g>
			<path style="fill:#F13554;" d="M242.68,160.124c-4.362,0.969-11.874,8.239-14.055,16.72c-2.181,8.482-2.908,14.055-1.938,15.993
				c0.969,1.938,3.635,1.938,8.724,1.696c5.088-0.242,8.239-4.604,8.239-4.604c2.589-17.888,2.568-17.884,3.15-21.082
				C247.284,166.183,247.042,159.155,242.68,160.124z"/>
			<path style="fill:#342245;" d="M265.856,342.642c-1.604,1.867-13.718,12.153-9.362,16.431c5.088,4.996,11.363,0.465,17.193-5.368
				c4.511-4.514,6.593-7.99,5.548-11.294C277.366,336.504,267.455,340.778,265.856,342.642z"/>
			<path style="fill:#342245;" d="M239.677,331.284c-1.767,1.586-14.365,6.019-12.411,13.126c1.953,7.102,26.501-3.389,25.15-11.502
				C251.425,326.927,241.447,329.695,239.677,331.284z"/>
			<path style="fill:#00658F;" d="M232.866,240.226c0,0,4.345,91.697,8.279,93.579c3.941,1.885,8.581,2.359,10.834,0.605
				c2.252-1.754,3.867-77.358,3.867-77.358c0.251,0.047,1.938-0.646,3.231,0.323c1.293,0.969,5.478,83.735,8.828,86.107
				c3.942,2.792,9.819,2.021,10.835,0.605c1.016-1.416,4.126-102.544,4.126-102.544L232.866,240.226z"/>
			<path style="fill:#F13554;" d="M263.854,155.23c0,0,19.796,3.596,20.424,18.671c0.628,15.079,0.178,67.445,0.178,69.511
				c0,2.073-7.321,11.244-29.691,10.052c-21.303-1.132-24.204-7.166-24.204-10.847c0-7.688,1.476-62.771,4.364-75.509
				C236.722,159.199,254.794,152.569,263.854,155.23z"/>
			<g>
				<path style="fill:#D8A78E;" d="M250.676,143.801c0,0-0.147,17.35,1.674,18.858c1.817,1.505,11.905,0.407,11.959-5.546
					c0.058-5.948,0.006-13.855,0.006-13.855L250.676,143.801z"/>
				<path style="fill:#FFD2C0;" d="M236.967,120.649c0,0,1.544,34.739,12.409,36.142c8.154,1.053,18.789-3.066,18.131-14.518
					c-0.653-11.451,1.335-28.394-6.248-28.231C253.667,114.209,235.412,112.948,236.967,120.649z"/>
				<path style="fill:#DA9200;" d="M270.689,117.814c0,0,1.629,11.583,1.895,16.768c0.266,5.188-4.931,10.817-7.058,8.825
					c-2.125-1.994-2.955-21.015-2.955-21.015L270.689,117.814z"/>
				<path style="fill:#DA9200;" d="M250.033,107.695c0,0-5.716-1.003-12.038,7.404c-4.474,5.95-3.3,18.144-0.557,17.584
					c1.03-0.208,19.697-6.778,20.533-9.144c0.253-0.715,2.344,16.057,6.215,11.765c3.869-4.285,10.3-11.591,4.691-22.046
					C263.264,102.805,250.033,107.695,250.033,107.695z"/>
				<path style="fill:#FFD2C0;" d="M263.419,136.64c0,0,1.721-6.095,5.401-3.604c3.685,2.484,1.772,12.585-2.622,10.958
					C261.804,142.361,263.419,136.64,263.419,136.64z"/>
			</g>
			<path style="fill:#CF2E48;" d="M282.985,170.141c-2.261-1.938-7.108-6.139-10.985-3.554c-3.877,2.585-5.492,16.155-6.139,24.878
				c-0.573,7.729,1.293,15.185-9.046,14.862c-6.657-0.208-15.185,1.292-9.693,9.046c5.493,7.754,34.506,9.585,36.186,6.785
				C285.247,218.927,285.247,172.079,282.985,170.141z"/>
			<path style="fill:#FFD2C0;" d="M226.929,191.626c-0.8,5.6-4.846,21.809,0.727,23.747c5.573,1.938,13.328-8.481,13.328-8.481
				l-2.665-15.993C238.318,190.899,227.414,188.233,226.929,191.626z"/>
			<g>
				<path style="fill:#FFD2C0;" d="M251.802,205.14c0.199,0.053,0.582-3.545-1.581-6.721c-2.167-3.176-3.89-4.074-4.903-2.442
					c-0.811,1.305,0.912,3.272,1.374,4.454C248.853,205.319,251.602,205.087,251.802,205.14z"/>
				<path style="fill:#83869A;" d="M234.04,206.722c-0.685,0.09-1.311-0.393-1.4-1.076l-3.137-24.028
					c-0.09-0.684,0.393-1.311,1.076-1.4l12.179-1.589c0.684-0.089,1.311,0.392,1.4,1.077l3.136,24.027
					c0.089,0.683-0.393,1.311-1.077,1.399L234.04,206.722z"/>
				<path style="fill:#FFD2C0;" d="M282.159,180.37c0,0-10.862-0.626-12.155,1.998c0,0,0.132,14.238-0.155,24.414
					c-4.113-0.41-15.295-1.828-17.234-2.555c-1.939-0.727-3.877-2.423-6.058-5.089c-1.32-1.613-6.966-7.878-9.693-6.3
					c-2.726,1.58-4.361,7.997,1.212,15.024c5.586,7.043,11.631,4.362,14.296,5.815c3.952,2.155,24.891,8.57,29.206,5.779
					C285.893,216.665,282.159,180.37,282.159,180.37z"/>
				<path style="fill:#F13554;" d="M285.09,168.453c-2.115-4.13-10.025-8.747-14.169-2.453c-4.138,6.294-4.292,29.896-1.652,31.685
					c1.716,1.163,4.681,1.407,8.211,1.629c4.313,0.271,8.382-2.099,9.604-3.393C289.001,193.902,288.675,175.441,285.09,168.453z"/>
			</g>
		</g>
	</g>
	<g>
		
			<linearGradient id="SVGID_00000121251210512856270240000013688844681580138153_" gradientUnits="userSpaceOnUse" x1="409.5175" y1="235.099" x2="410.0974" y2="355.694" gradientTransform="matrix(0.9588 0.284 -0.284 0.9588 107.8243 -103.1209)">
			<stop  offset="0" style="stop-color:#8FD4FF"/>
			<stop  offset="1" style="stop-color:#C987E5"/>
		</linearGradient>
		<path style="fill:url(#SVGID_00000121251210512856270240000013688844681580138153_);" d="M435.439,286.016
			c0,0-28.661,3.943-38.53,19.586c-9.869,15.643-10.075,25.991-11.97,33.999c-1.896,8.008-2.984,18.117-2.984,18.117
			s15.646-8.308,33.837-15.083C433.984,335.859,435.439,286.016,435.439,286.016z"/>
		<path style="fill:#9D63EA;" d="M409.634,317.939c2.424,0.642,5.07-0.262,7.324-1.142c3.072-1.199,6.557-2.99,8.938-5.315
			c0.207-0.202,0.018-0.56-0.267-0.492c-2.522,0.607-4.845,2.244-7.125,3.434c-2.628,1.372-5.1,2.048-7.899,2.325
			c1.595-1.943,3.185-3.888,4.751-5.854c3.624-4.556,6.413-9.86,10.27-14.182c0.362-0.406-0.143-0.93-0.571-0.608
			c-3.837,2.881-6.061,7.552-9.019,11.261c-2.074,2.601-4.214,5.145-6.368,7.678c0.656-5.012,1.411-9.878,2.66-14.872
			c0.144-0.576-0.69-0.824-0.882-0.262c-1.728,5.052-4.147,11.33-3.246,16.863c-2.028,2.376-4.059,4.749-6.055,7.152
			c-1.266,1.525-2.553,3.096-3.835,4.703c0.029-1.834,0.086-4.798,0.064-5.038c-0.44-4.728-0.205-9.298,1.509-13.773
			c0.165-0.434-0.475-0.677-0.715-0.322c-2.859,4.224-3.081,9.317-2.406,14.275c0.082,0.603,0.004,4.302,0.693,5.941
			c-5.884,7.49-11.49,15.813-14.05,24.735c-0.138,0.485,0.549,0.807,0.813,0.366c4.733-7.932,9.274-15.698,14.552-23.125
			c5.765,2.133,13.598,0.708,17.947-3.348c0.322-0.3-0.082-0.895-0.46-0.637c-4.79,3.27-10.933,3.538-16.521,2.662
			c1.525-2.098,3.1-4.173,4.774-6.211C406.214,322.079,407.927,320.011,409.634,317.939z"/>
	</g>
</g>
<g id="DESIGNED_BY_FREEPIK">
	<g>
		<path style="fill:#1D262D;" d="M260.104,465.463c-0.432,0.443-0.803,0.932-1.108,1.453l-0.465-0.24
			c-0.068-0.297-0.35-0.502-0.66-0.467c-0.33,0.039-0.566,0.34-0.529,0.67c0.039,0.332,0.34,0.568,0.67,0.529
			c0.066-0.006,0.127-0.025,0.184-0.051l0.451,0.234c-0.25,0.553-0.432,1.139-0.539,1.742l0.748,0.133
			c0.228-1.307,0.85-2.508,1.791-3.475L260.104,465.463z"/>
		<path style="fill:#1D262D;" d="M262.596,464.594c0.936-0.447,1.941-0.674,2.996-0.674c0.496,0,0.992,0.053,1.475,0.158l0.16-0.742
			c-0.535-0.115-1.084-0.174-1.635-0.174c-0.172,0-0.342,0.006-0.51,0.016l-0.074-0.625c0.188-0.15,0.297-0.389,0.266-0.645
			c-0.045-0.393-0.402-0.674-0.795-0.629c-0.393,0.047-0.674,0.402-0.627,0.797c0.029,0.254,0.19,0.461,0.404,0.563l0.072,0.625
			c-0.713,0.115-1.402,0.332-2.059,0.645L262.596,464.594z"/>
		<path style="fill:#1D262D;" d="M272.047,464.512c-0.309,0.037-0.535,0.303-0.529,0.607l-0.416,0.363
			c-0.418-0.43-0.891-0.813-1.408-1.139l-0.404,0.641c1.135,0.715,2.022,1.727,2.565,2.926l0.689-0.313
			c-0.25-0.553-0.566-1.072-0.941-1.545l0.402-0.352c0.06,0.012,0.125,0.016,0.189,0.008c0.332-0.041,0.566-0.342,0.525-0.672
			C272.68,464.706,272.379,464.471,272.047,464.512z"/>
		<path style="fill:#1D262D;" d="M265.045,473.372c-0.387,0.023-0.775,0.035-1.158,0.035c-0.879,0-1.733-0.06-2.479-0.18
			c-0.391-0.063-0.846-0.154-1.27-0.293c1.047,1.861,3.068,3.125,5.389,3.125c2.855,0,5.262-1.916,5.949-4.502
			c-0.682,0.449-1.506,0.824-2.459,1.121C267.838,473.048,266.463,473.286,265.045,473.372z"/>
		<path style="fill:#1D262D;" d="M265.592,464.678c-3.352,0-6.08,2.668-6.08,5.945c0,0.424,0.047,0.848,0.137,1.26
			c0.674,0.484,2.707,0.891,5.348,0.732c2.881-0.174,5.297-0.959,6.672-2.161c-0.004-0.193-0.02-0.389-0.045-0.58
			C271.244,466.913,268.65,464.678,265.592,464.678z M263.432,471.194c-1.02,0-1.85-0.83-1.85-1.85c0-1.02,0.83-1.85,1.85-1.85
			s1.85,0.83,1.85,1.85C265.281,470.364,264.451,471.194,263.432,471.194z M268.17,470.286c-0.75,0-1.361-0.609-1.361-1.359
			s0.611-1.361,1.361-1.361s1.359,0.611,1.359,1.361S268.92,470.286,268.17,470.286z"/>
		<path style="fill:#1D262D;" d="M279.369,467.315c0-0.666,0.293-0.938,0.844-1.008c0.576-0.07,1.088,0.123,1.383,0.238v-1.729
			c-0.434-0.186-0.947-0.307-1.59-0.307c-1.674,0-2.568,1.102-2.568,2.783v0.889h-1.34v1.717h1.34v5.456h1.932v-5.456h2.228v-1.717
			h-2.228V467.315z"/>
		<path style="fill:#1D262D;" d="M286.223,467.989c-0.881,0-1.568,0.305-2.02,0.977v-0.783h-1.873v7.172h1.932v-3.909
			c0-1.066,0.615-1.613,1.51-1.613c0.168,0,0.35,0.016,0.525,0.045l1.021-1.551C287.07,468.118,286.637,467.989,286.223,467.989z"/>
		<path style="fill:#1D262D;" d="M290.479,467.989c-2.147,0-3.627,1.539-3.627,3.797c0,2.258,1.525,3.754,3.725,3.754
			c1.205,0,2.242-0.342,3.057-1.09l-1.133-1.242c-0.52,0.435-1.191,0.688-1.814,0.688c-0.91,0-1.635-0.451-1.842-1.486h5.084
			c0.022-0.164,0.037-0.43,0.037-0.652C293.957,469.522,292.543,467.989,290.479,467.989z M288.852,471.09
			c0.17-0.889,0.703-1.436,1.613-1.436c0.828,0,1.383,0.518,1.56,1.436H288.852z"/>
		<path style="fill:#1D262D;" d="M298.133,467.989c-2.147,0-3.627,1.539-3.627,3.797c0,2.258,1.523,3.754,3.723,3.754
			c1.207,0,2.242-0.342,3.057-1.09l-1.133-1.242c-0.518,0.435-1.191,0.688-1.813,0.688c-0.91,0-1.637-0.451-1.844-1.486h5.086
			c0.022-0.164,0.037-0.43,0.037-0.652C301.611,469.522,300.197,467.989,298.133,467.989z M296.504,471.09
			c0.17-0.889,0.703-1.436,1.613-1.436c0.828,0,1.385,0.518,1.563,1.436H296.504z"/>
		<path style="fill:#1D262D;" d="M306.484,467.989c-0.984,0-1.672,0.4-2.139,0.984v-0.791h-1.887v10.133h1.924v-3.709
			c0.467,0.555,1.148,0.934,2.109,0.934c1.977,0,3.473-1.621,3.473-3.775C309.965,469.61,308.469,467.989,306.484,467.989z
			 M306.131,473.741c-1.096,0-1.844-0.844-1.844-1.977c0-1.133,0.748-1.977,1.844-1.977c1.139,0,1.85,0.881,1.85,1.977
			C307.98,472.86,307.27,473.741,306.131,473.741z"/>
		<rect x="310.877" y="468.182" style="fill:#1D262D;" width="1.932" height="7.172"/>
		<path style="fill:#1D262D;" d="M311.832,464.59c-0.697,0-1.228,0.549-1.228,1.244c0,0.695,0.531,1.23,1.228,1.23
			c0.695,0,1.236-0.535,1.236-1.23C313.068,465.139,312.527,464.59,311.832,464.59z"/>
		<polygon style="fill:#1D262D;" points="317.623,471.558 321.102,468.182 318.734,468.182 316.031,470.735 316.031,464.694 
			314.1,464.694 314.1,475.354 316.031,475.354 316.031,472.452 318.748,475.354 321.125,475.354 		"/>
		<path style="fill:#1D262D;" d="M184.412,469.284c-0.57-0.777-1.435-1.246-2.387-1.246c-1.86,0-3.149,1.465-3.149,3.721
			c0,2.301,1.304,3.707,3.149,3.707c0.996,0,1.859-0.514,2.387-1.23v1.055h1.1v-9.772h-1.1V469.284z M184.412,473.37
			c-0.395,0.615-1.244,1.113-2.124,1.113c-1.42,0-2.27-1.156-2.27-2.725c0-1.567,0.85-2.739,2.27-2.739
			c0.88,0,1.73,0.527,2.124,1.143V473.37z"/>
		<path style="fill:#1D262D;" d="M190.417,468.038c-2.021,0-3.486,1.656-3.486,3.707c0,2.211,1.509,3.721,3.604,3.721
			c1.157,0,2.109-0.381,2.813-1.084l-0.527-0.719c-0.557,0.572-1.377,0.895-2.183,0.895c-1.523,0-2.461-1.113-2.549-2.447h5.728
			v-0.277C193.816,469.707,192.556,468.038,190.417,468.038z M188.088,471.305c0.059-1.084,0.806-2.359,2.314-2.359
			c1.611,0,2.314,1.305,2.329,2.359H188.088z"/>
		<path style="fill:#1D262D;" d="M195.867,470.045c0-0.631,0.601-1.113,1.566-1.113c0.909,0,1.686,0.381,2.109,0.893l0.514-0.762
			c-0.571-0.57-1.421-1.025-2.623-1.025c-1.685,0-2.636,0.938-2.636,2.037c0,2.622,4.38,1.567,4.38,3.282
			c0,0.703-0.586,1.215-1.671,1.215c-0.966,0-1.859-0.469-2.328-1.01l-0.571,0.791c0.718,0.762,1.699,1.113,2.856,1.113
			c1.831,0,2.782-0.953,2.782-2.139C200.246,470.573,195.867,471.599,195.867,470.045z"/>
		<rect x="201.667" y="468.213" style="fill:#1D262D;" width="1.1" height="7.077"/>
		<path style="fill:#1D262D;" d="M202.208,465.723c-0.395,0-0.731,0.336-0.731,0.746c0,0.41,0.337,0.734,0.731,0.734
			c0.41,0,0.747-0.324,0.747-0.734C202.956,466.059,202.619,465.723,202.208,465.723z"/>
		<path style="fill:#1D262D;" d="M209.708,469.284c-0.571-0.777-1.421-1.246-2.373-1.246c-1.86,0-3.149,1.406-3.149,3.678
			c0,2.285,1.304,3.662,3.149,3.662c0.996,0,1.86-0.543,2.373-1.26v1.01c0,1.553-1.099,2.125-2.27,2.125
			c-1.011,0-1.714-0.264-2.3-0.967l-0.557,0.82c0.835,0.818,1.655,1.055,2.856,1.055c1.729,0,3.369-0.732,3.369-3.076v-6.871h-1.099
			V469.284z M209.708,473.253c-0.381,0.615-1.23,1.158-2.109,1.158c-1.421,0-2.27-1.143-2.27-2.695c0-1.569,0.85-2.696,2.27-2.696
			c0.879,0,1.729,0.527,2.109,1.143V473.253z"/>
		<path style="fill:#1D262D;" d="M216.255,468.038c-1.055,0-2.021,0.615-2.519,1.201v-1.025h-1.1v7.077h1.1v-5.172
			c0.409-0.57,1.23-1.098,2.094-1.098c0.952,0,1.582,0.395,1.582,1.641v4.629h1.099v-4.967
			C218.511,468.786,217.735,468.038,216.255,468.038z"/>
		<path style="fill:#1D262D;" d="M223.419,468.038c-2.021,0-3.486,1.656-3.486,3.707c0,2.211,1.509,3.721,3.604,3.721
			c1.157,0,2.109-0.381,2.813-1.084l-0.527-0.719c-0.557,0.572-1.377,0.895-2.183,0.895c-1.523,0-2.461-1.113-2.549-2.447h5.727
			v-0.277C226.817,469.707,225.557,468.038,223.419,468.038z M221.089,471.305c0.059-1.084,0.806-2.359,2.314-2.359
			c1.611,0,2.314,1.305,2.329,2.359H221.089z"/>
		<path style="fill:#1D262D;" d="M233.35,469.284c-0.571-0.777-1.436-1.246-2.389-1.246c-1.86,0-3.148,1.465-3.148,3.721
			c0,2.301,1.304,3.707,3.148,3.707c0.997,0,1.861-0.514,2.389-1.23v1.055h1.098v-9.772h-1.098V469.284z M233.35,473.37
			c-0.396,0.615-1.245,1.113-2.124,1.113c-1.421,0-2.271-1.156-2.271-2.725c0-1.567,0.85-2.739,2.271-2.739
			c0.879,0,1.728,0.527,2.124,1.143V473.37z"/>
		<path style="fill:#1D262D;" d="M243.178,468.038c-0.967,0-1.816,0.469-2.388,1.246v-3.766h-1.099v9.772h1.099v-1.055
			c0.527,0.717,1.392,1.23,2.388,1.23c1.845,0,3.149-1.406,3.149-3.707C246.328,469.502,245.023,468.038,243.178,468.038z
			 M242.9,474.483c-0.864,0-1.729-0.498-2.109-1.113v-3.207c0.381-0.615,1.245-1.143,2.109-1.143c1.436,0,2.285,1.172,2.285,2.739
			C245.185,473.327,244.335,474.483,242.9,474.483z"/>
		<path style="fill:#1D262D;" d="M250.238,474.015l-2.358-5.801h-1.186l2.959,7.149l-0.469,1.07
			c-0.249,0.586-0.571,0.746-1.055,0.746c-0.175,0-0.439-0.043-0.601-0.117l-0.176,0.996c0.205,0.059,0.571,0.104,0.806,0.104
			c0.938-0.016,1.655-0.412,2.08-1.436l3.546-8.512h-1.201L250.238,474.015z"/>
	</g>
</g>
</svg>
